<?xml version="1.0" encoding="utf-8"?>
<!-- Generator: Adobe Illustrator 21.0.2, SVG Export Plug-In . SVG Version: 6.00 Build 0)  -->
<svg version="1.1" id="Calque_1" xmlns="http://www.w3.org/2000/svg" xmlns:xlink="http://www.w3.org/1999/xlink" x="0px" y="0px"
	 viewBox="0 0 57.8 41.9" style="enable-background:new 0 0 57.8 41.9;" xml:space="preserve">
<style type="text/css">
	.st0{fill:#00A1DF;}
	.st1{fill:#FFA05F;}
	.st2{fill:#FF8300;}
	.st3{fill:#004987;}
	.st4{fill:#36C0EA;}
	.st5{fill:#1470A8;}
	.st6{fill:#5C546A;}
	.st7{fill:#E87E04;}
	.st8{fill:#FF9600;}
	.st9{fill:#FFCB39;}
	.st10{fill:#004A7D;}
</style>
<title>rocket_1</title>
<g id="Layer_2">
	<g id="Layer_1-2">
		<g id="rocket">
			<path class="st0" d="M16.3,41.6c0.7-0.2,1.3-0.6,1.9-1c4.4-3,5.6-9,2.5-13.5c-1.9-2.8-5.2-4.4-8.5-4.2c-1.8,0.1-3.5,0.7-4.9,1.7
				C6.7,25,6.2,25.5,5.7,26c1.2-7.5,8.3-12.7,15.8-11.5S34.2,22.7,33,30.3c-0.1,0.7-0.3,1.5-0.5,2.2c-1,2.9-2.8,5.3-5.4,7
				C24,41.7,20.1,42.4,16.3,41.6z"/>
			<path class="st1" d="M57.8,2.3c0-0.3-0.2-0.6-0.5-0.8c-6.8-2.7-14.5-1.9-20.5,2.3c-4.1,2.8-14.4,11.3-23.9,19.8
				c-1.4,1.2-1.6,3.3-0.6,4.8l4.1,5.9c1,1.5,3.1,2,4.7,1.2c11.3-5.7,23-12.2,27.1-15C54.2,16.5,57.9,9.7,57.8,2.3z"/>
			<path class="st2" d="M14.3,31.4l-2-3c-1-1.5-0.8-3.6,0.6-4.8c9.5-8.4,19.7-16.9,23.8-19.7c6-4.2,13.7-5.1,20.5-2.3
				c0.1,0.1,0.3,0.2,0.4,0.3l0,0L14.3,31.4z"/>
			<path class="st3" d="M44.8,17.3c-2.5,1.7-6,1.1-7.7-1.4c-1.7-2.5-1.1-6,1.4-7.7c2.5-1.7,6-1.1,7.7,1.4c0,0,0,0,0,0
				C48,12.2,47.3,15.6,44.8,17.3z"/>
			<path class="st4" d="M57.3,1.6c-3.4-1.4-7.2-1.9-10.8-1.4l8.7,12.8c1.8-3.2,2.7-6.9,2.6-10.6C57.8,2,57.6,1.7,57.3,1.6z"/>
			<path class="st0" d="M57.7,1.9c-0.1-0.1-0.2-0.3-0.4-0.3c-3.4-1.4-7.2-1.9-10.8-1.4l4.3,6.4L57.7,1.9z"/>
			<path class="st5" d="M44.8,17.3c2.5-1.7,3.2-5.2,1.5-7.7l-9.1,6.2C38.8,18.4,42.3,19.1,44.8,17.3z"/>
			<path class="st6" d="M36.4,16.4c-2-2.9-1.2-7,1.7-8.9c2.9-2,7-1.2,8.9,1.7c2,2.9,1.2,6.9-1.7,8.9C42.4,20.1,38.4,19.4,36.4,16.4
				C36.4,16.4,36.4,16.4,36.4,16.4z M45.5,10.2c-1.4-2.1-4.3-2.6-6.4-1.2s-2.6,4.3-1.2,6.4s4.3,2.6,6.4,1.2c0,0,0,0,0,0
				C46.4,15.1,46.9,12.3,45.5,10.2z"/>
			<g id="flame">
				<path class="st7" d="M11.4,38.5C7.4,41.2,0,41.2,0,41.2s2.3-6.6,6.7-9.6c1.9-1.3,4.5-0.8,5.8,1.1C13.8,34.6,13.3,37.2,11.4,38.5
					z"/>
				<path class="st8" d="M11.8,36.5c-2.6,1.8-7.6,1.8-7.6,1.8S5.7,34,8.6,32c1.3-0.9,3-0.5,3.8,0.7C13.3,34,13,35.7,11.8,36.5
					L11.8,36.5z"/>
				<path class="st9" d="M11.7,35.4c-1.6,1.1-4.6,1.1-4.6,1.1c0.5-1.5,1.5-2.9,2.7-3.9c0.8-0.5,1.8-0.3,2.3,0.4
					C12.7,33.8,12.5,34.8,11.7,35.4L11.7,35.4z"/>
			</g>
		</g>
	</g>
</g>
<g>
	<path class="st5" d="M25.5,23.8c0.1,0.3,0.3,0.6,0.2,1.1c-0.1,0.4-0.5,0.7-1.1,0.8c-0.2,0-0.3,0-0.5-0.1c-0.3-0.1-0.5-0.3-0.6-0.5
		l-0.7,0.5c0.6,1,1.9,1.2,2.9,0.6c0.4-0.3,0.7-0.6,0.8-1.1l0-0.1c0.1-0.7-0.1-1.2-0.2-1.6c0-0.1,0-0.1-0.1-0.2L25.5,23.8
		C25.5,23.8,25.5,23.8,25.5,23.8z"/>
	<path class="st5" d="M28.1,22l-0.7,0.5c0,0,0,0,0,0c0.2,0.2,0.2,0.5,0,0.8c-0.1,0.1-0.1,0.3,0,0.5l0,0c0.2,0.2,0.5,0.2,0.7,0
		C28.5,23.3,28.5,22.6,28.1,22C28.1,22.1,28.1,22.1,28.1,22z"/>
	<path class="st10" d="M23.9,23.5c0,0,0.1-0.1,0.1-0.1c0.1-0.1,0.2-0.2,0.2-0.3c0.1-0.4-0.3-0.6-0.6-0.5c-0.4,0.2-0.8,0.6-1.1,1.1
		c-0.1,0.2-0.2,0.5-0.1,0.8c0,0.4,0.2,0.8,0.4,1.1l0.7-0.5C23.2,24.6,23.4,23.9,23.9,23.5z"/>
	<path class="st10" d="M26,21.7c-0.3,0.2-0.6,0.6-0.6,0.9c-0.1,0.5,0.1,0.9,0.2,1.2l0.7-0.5c-0.1-0.2-0.1-0.4-0.1-0.6
		c0-0.1,0.1-0.3,0.3-0.4c0.3-0.2,0.7-0.1,0.9,0.2l0.7-0.5C27.6,21.4,26.7,21.2,26,21.7z"/>
</g>
</svg>
